<svg width="246" height="57" viewBox="0 0 246 57" fill="none" xmlns="http://www.w3.org/2000/svg">
<path d="M224 1.5H22C10.6782 1.5 1.5 10.6782 1.5 22V35C1.5 46.3218 10.6782 55.5 22 55.5H224C235.322 55.5 244.5 46.3218 244.5 35V30.1721V22C244.5 10.6782 235.322 1.5 224 1.5Z" fill="#050505" fill-opacity="0.7" stroke="#959595" stroke-width="3"/>
<path d="M19.522 33.758L20.278 32.048C20.818 32.42 21.406 32.708 22.042 32.912C22.69 33.104 23.332 33.206 23.968 33.218C24.604 33.23 25.18 33.158 25.696 33.002C26.224 32.846 26.644 32.612 26.956 32.3C27.268 31.988 27.424 31.598 27.424 31.13C27.424 30.566 27.19 30.146 26.722 29.87C26.266 29.582 25.642 29.438 24.85 29.438H21.916V27.602H24.67C25.378 27.602 25.924 27.458 26.308 27.17C26.704 26.882 26.902 26.492 26.902 26C26.902 25.592 26.77 25.256 26.506 24.992C26.254 24.728 25.906 24.53 25.462 24.398C25.03 24.266 24.538 24.206 23.986 24.218C23.446 24.218 22.882 24.302 22.294 24.47C21.706 24.626 21.148 24.86 20.62 25.172L19.882 23.282C20.674 22.862 21.502 22.568 22.366 22.4C23.242 22.232 24.088 22.184 24.904 22.256C25.72 22.328 26.452 22.514 27.1 22.814C27.76 23.114 28.288 23.51 28.684 24.002C29.08 24.482 29.278 25.052 29.278 25.712C29.278 26.312 29.116 26.846 28.792 27.314C28.48 27.77 28.048 28.124 27.496 28.376C26.944 28.628 26.302 28.754 25.57 28.754L25.66 28.178C26.488 28.178 27.208 28.322 27.82 28.61C28.444 28.886 28.924 29.27 29.26 29.762C29.608 30.254 29.782 30.824 29.782 31.472C29.782 32.084 29.626 32.63 29.314 33.11C29.002 33.578 28.576 33.974 28.036 34.298C27.496 34.61 26.878 34.844 26.182 35C25.486 35.144 24.754 35.198 23.986 35.162C23.218 35.126 22.45 34.994 21.682 34.766C20.926 34.538 20.206 34.202 19.522 33.758ZM38.0335 35V33.056L37.9075 32.642V29.24C37.9075 28.58 37.7095 28.07 37.3135 27.71C36.9175 27.338 36.3175 27.152 35.5135 27.152C34.9735 27.152 34.4395 27.236 33.9115 27.404C33.3955 27.572 32.9575 27.806 32.5975 28.106L31.7155 26.468C32.2315 26.072 32.8435 25.778 33.5515 25.586C34.2715 25.382 35.0155 25.28 35.7835 25.28C37.1755 25.28 38.2495 25.616 39.0055 26.288C39.7735 26.948 40.1575 27.974 40.1575 29.366V35H38.0335ZM35.0095 35.126C34.2895 35.126 33.6595 35.006 33.1195 34.766C32.5795 34.514 32.1595 34.172 31.8595 33.74C31.5715 33.296 31.4275 32.798 31.4275 32.246C31.4275 31.706 31.5535 31.22 31.8055 30.788C32.0695 30.356 32.4955 30.014 33.0835 29.762C33.6715 29.51 34.4515 29.384 35.4235 29.384H38.2135V30.878H35.5855C34.8175 30.878 34.3015 31.004 34.0375 31.256C33.7735 31.496 33.6415 31.796 33.6415 32.156C33.6415 32.564 33.8035 32.888 34.1275 33.128C34.4515 33.368 34.9015 33.488 35.4775 33.488C36.0295 33.488 36.5215 33.362 36.9535 33.11C37.3975 32.858 37.7155 32.486 37.9075 31.994L38.2855 33.344C38.0695 33.908 37.6795 34.346 37.1155 34.658C36.5635 34.97 35.8615 35.126 35.0095 35.126ZM49.5297 33.956V27.296H45.8397L45.7857 28.844C45.7617 29.396 45.7257 29.93 45.6777 30.446C45.6297 30.95 45.5517 31.418 45.4437 31.85C45.3357 32.27 45.1797 32.618 44.9757 32.894C44.7717 33.17 44.5017 33.35 44.1657 33.434L41.9337 33.092C42.2937 33.092 42.5817 32.978 42.7977 32.75C43.0257 32.51 43.1997 32.186 43.3197 31.778C43.4517 31.358 43.5477 30.884 43.6077 30.356C43.6677 29.816 43.7097 29.258 43.7337 28.682L43.8597 25.388H51.7797V33.956H49.5297ZM41.5917 37.142V33.092H53.2017V37.142H51.0957V35H43.6797V37.142H41.5917ZM61.0432 35V33.056L60.9172 32.642V29.24C60.9172 28.58 60.7192 28.07 60.3232 27.71C59.9272 27.338 59.3272 27.152 58.5232 27.152C57.9832 27.152 57.4492 27.236 56.9212 27.404C56.4052 27.572 55.9672 27.806 55.6072 28.106L54.7252 26.468C55.2412 26.072 55.8532 25.778 56.5612 25.586C57.2812 25.382 58.0252 25.28 58.7932 25.28C60.1852 25.28 61.2592 25.616 62.0152 26.288C62.7832 26.948 63.1672 27.974 63.1672 29.366V35H61.0432ZM58.0192 35.126C57.2992 35.126 56.6692 35.006 56.1292 34.766C55.5892 34.514 55.1692 34.172 54.8692 33.74C54.5812 33.296 54.4372 32.798 54.4372 32.246C54.4372 31.706 54.5632 31.22 54.8152 30.788C55.0792 30.356 55.5052 30.014 56.0932 29.762C56.6812 29.51 57.4612 29.384 58.4332 29.384H61.2232V30.878H58.5952C57.8272 30.878 57.3112 31.004 57.0472 31.256C56.7832 31.496 56.6512 31.796 56.6512 32.156C56.6512 32.564 56.8132 32.888 57.1372 33.128C57.4612 33.368 57.9112 33.488 58.4872 33.488C59.0392 33.488 59.5312 33.362 59.9632 33.11C60.4072 32.858 60.7252 32.486 60.9172 31.994L61.2952 33.344C61.0792 33.908 60.6892 34.346 60.1252 34.658C59.5732 34.97 58.8712 35.126 58.0192 35.126ZM67.9495 35V26.756L68.4715 27.296H64.5655V25.388H73.5655V27.296H69.6775L70.1995 26.756V35H67.9495ZM80.0215 28.556C81.2575 28.556 82.1995 28.832 82.8475 29.384C83.4955 29.936 83.8195 30.716 83.8195 31.724C83.8195 32.768 83.4595 33.584 82.7395 34.172C82.0195 34.748 81.0055 35.03 79.6975 35.018L75.1975 35V25.388H77.4475V28.538L80.0215 28.556ZM79.4995 33.362C80.1595 33.374 80.6635 33.236 81.0115 32.948C81.3595 32.66 81.5335 32.24 81.5335 31.688C81.5335 31.136 81.3595 30.74 81.0115 30.5C80.6755 30.248 80.1715 30.116 79.4995 30.104L77.4475 30.086V33.344L79.4995 33.362ZM90.7718 35V25.388H93.0218V29.294H97.8638V25.388H100.114V35H97.8638V31.202H93.0218V35H90.7718ZM107.413 35.126C106.429 35.126 105.553 34.916 104.785 34.496C104.017 34.064 103.411 33.476 102.967 32.732C102.523 31.988 102.301 31.142 102.301 30.194C102.301 29.234 102.523 28.388 102.967 27.656C103.411 26.912 104.017 26.33 104.785 25.91C105.553 25.49 106.429 25.28 107.413 25.28C108.409 25.28 109.291 25.49 110.059 25.91C110.839 26.33 111.445 26.906 111.877 27.638C112.321 28.37 112.543 29.222 112.543 30.194C112.543 31.142 112.321 31.988 111.877 32.732C111.445 33.476 110.839 34.064 110.059 34.496C109.291 34.916 108.409 35.126 107.413 35.126ZM107.413 33.2C107.965 33.2 108.457 33.08 108.889 32.84C109.321 32.6 109.657 32.252 109.897 31.796C110.149 31.34 110.275 30.806 110.275 30.194C110.275 29.57 110.149 29.036 109.897 28.592C109.657 28.136 109.321 27.788 108.889 27.548C108.457 27.308 107.971 27.188 107.431 27.188C106.879 27.188 106.387 27.308 105.955 27.548C105.535 27.788 105.199 28.136 104.947 28.592C104.695 29.036 104.569 29.57 104.569 30.194C104.569 30.806 104.695 31.34 104.947 31.796C105.199 32.252 105.535 32.6 105.955 32.84C106.387 33.08 106.873 33.2 107.413 33.2ZM114.766 35V25.388H119.464C120.628 25.388 121.54 25.604 122.2 26.036C122.872 26.468 123.208 27.08 123.208 27.872C123.208 28.652 122.896 29.264 122.272 29.708C121.648 30.14 120.82 30.356 119.788 30.356L120.058 29.798C121.222 29.798 122.086 30.014 122.65 30.446C123.226 30.866 123.514 31.484 123.514 32.3C123.514 33.152 123.196 33.818 122.56 34.298C121.924 34.766 120.958 35 119.662 35H114.766ZM116.908 33.362H119.482C120.094 33.362 120.556 33.266 120.868 33.074C121.18 32.87 121.336 32.564 121.336 32.156C121.336 31.724 121.192 31.406 120.904 31.202C120.616 30.998 120.166 30.896 119.554 30.896H116.908V33.362ZM116.908 29.402H119.266C119.842 29.402 120.274 29.3 120.562 29.096C120.862 28.88 121.012 28.58 121.012 28.196C121.012 27.8 120.862 27.506 120.562 27.314C120.274 27.122 119.842 27.026 119.266 27.026H116.908V29.402ZM135.612 35V25.388H137.862V35H135.612ZM130.59 28.556C131.826 28.556 132.762 28.832 133.398 29.384C134.046 29.936 134.37 30.716 134.37 31.724C134.37 32.768 134.01 33.584 133.29 34.172C132.582 34.748 131.574 35.03 130.266 35.018L125.91 35V25.388H128.16V28.538L130.59 28.556ZM130.068 33.362C130.728 33.374 131.232 33.236 131.58 32.948C131.928 32.66 132.102 32.24 132.102 31.688C132.102 31.136 131.928 30.74 131.58 30.5C131.244 30.248 130.74 30.116 130.068 30.104L128.16 30.086V33.344L130.068 33.362ZM140.887 35V25.388H143.137V31.724L148.447 25.388H150.499V35H148.249V28.664L142.957 35H140.887ZM145.549 24.254C144.589 24.254 143.851 24.032 143.335 23.588C142.819 23.132 142.555 22.472 142.543 21.608H144.037C144.049 22.04 144.181 22.382 144.433 22.634C144.697 22.886 145.063 23.012 145.531 23.012C145.987 23.012 146.347 22.886 146.611 22.634C146.887 22.382 147.031 22.04 147.043 21.608H148.573C148.561 22.472 148.291 23.132 147.763 23.588C147.247 24.032 146.509 24.254 145.549 24.254ZM158.5 35V25.388H163.198C164.362 25.388 165.274 25.604 165.934 26.036C166.606 26.468 166.942 27.08 166.942 27.872C166.942 28.652 166.63 29.264 166.006 29.708C165.382 30.14 164.554 30.356 163.522 30.356L163.792 29.798C164.956 29.798 165.82 30.014 166.384 30.446C166.96 30.866 167.248 31.484 167.248 32.3C167.248 33.152 166.93 33.818 166.294 34.298C165.658 34.766 164.692 35 163.396 35H158.5ZM160.642 33.362H163.216C163.828 33.362 164.29 33.266 164.602 33.074C164.914 32.87 165.07 32.564 165.07 32.156C165.07 31.724 164.926 31.406 164.638 31.202C164.35 30.998 163.9 30.896 163.288 30.896H160.642V33.362ZM160.642 29.402H163C163.576 29.402 164.008 29.3 164.296 29.096C164.596 28.88 164.746 28.58 164.746 28.196C164.746 27.8 164.596 27.506 164.296 27.314C164.008 27.122 163.576 27.026 163 27.026H160.642V29.402ZM173.929 35.126C172.945 35.126 172.069 34.916 171.301 34.496C170.533 34.064 169.927 33.476 169.483 32.732C169.039 31.988 168.817 31.142 168.817 30.194C168.817 29.234 169.039 28.388 169.483 27.656C169.927 26.912 170.533 26.33 171.301 25.91C172.069 25.49 172.945 25.28 173.929 25.28C174.925 25.28 175.807 25.49 176.575 25.91C177.355 26.33 177.961 26.906 178.393 27.638C178.837 28.37 179.059 29.222 179.059 30.194C179.059 31.142 178.837 31.988 178.393 32.732C177.961 33.476 177.355 34.064 176.575 34.496C175.807 34.916 174.925 35.126 173.929 35.126ZM173.929 33.2C174.481 33.2 174.973 33.08 175.405 32.84C175.837 32.6 176.173 32.252 176.413 31.796C176.665 31.34 176.791 30.806 176.791 30.194C176.791 29.57 176.665 29.036 176.413 28.592C176.173 28.136 175.837 27.788 175.405 27.548C174.973 27.308 174.487 27.188 173.947 27.188C173.395 27.188 172.903 27.308 172.471 27.548C172.051 27.788 171.715 28.136 171.463 28.592C171.211 29.036 171.085 29.57 171.085 30.194C171.085 30.806 171.211 31.34 171.463 31.796C171.715 32.252 172.051 32.6 172.471 32.84C172.903 33.08 173.389 33.2 173.929 33.2ZM181.282 35V25.388H190.498V35H188.266V26.774L188.788 27.296H183.01L183.532 26.774V35H181.282ZM198.861 35.126C198.081 35.126 197.367 34.946 196.719 34.586C196.083 34.226 195.573 33.686 195.189 32.966C194.817 32.234 194.631 31.31 194.631 30.194C194.631 29.066 194.811 28.142 195.171 27.422C195.543 26.702 196.047 26.168 196.683 25.82C197.319 25.46 198.045 25.28 198.861 25.28C199.809 25.28 200.643 25.484 201.363 25.892C202.095 26.3 202.671 26.87 203.091 27.602C203.523 28.334 203.739 29.198 203.739 30.194C203.739 31.19 203.523 32.06 203.091 32.804C202.671 33.536 202.095 34.106 201.363 34.514C200.643 34.922 199.809 35.126 198.861 35.126ZM193.533 38.492V25.388H195.675V27.656L195.603 30.212L195.783 32.768V38.492H193.533ZM198.609 33.2C199.149 33.2 199.629 33.08 200.049 32.84C200.481 32.6 200.823 32.252 201.075 31.796C201.327 31.34 201.453 30.806 201.453 30.194C201.453 29.57 201.327 29.036 201.075 28.592C200.823 28.136 200.481 27.788 200.049 27.548C199.629 27.308 199.149 27.188 198.609 27.188C198.069 27.188 197.583 27.308 197.151 27.548C196.719 27.788 196.377 28.136 196.125 28.592C195.873 29.036 195.747 29.57 195.747 30.194C195.747 30.806 195.873 31.34 196.125 31.796C196.377 32.252 196.719 32.6 197.151 32.84C197.583 33.08 198.069 33.2 198.609 33.2ZM210.263 35.126C209.279 35.126 208.403 34.916 207.635 34.496C206.867 34.064 206.261 33.476 205.817 32.732C205.373 31.988 205.151 31.142 205.151 30.194C205.151 29.234 205.373 28.388 205.817 27.656C206.261 26.912 206.867 26.33 207.635 25.91C208.403 25.49 209.279 25.28 210.263 25.28C211.259 25.28 212.141 25.49 212.909 25.91C213.689 26.33 214.295 26.906 214.727 27.638C215.171 28.37 215.393 29.222 215.393 30.194C215.393 31.142 215.171 31.988 214.727 32.732C214.295 33.476 213.689 34.064 212.909 34.496C212.141 34.916 211.259 35.126 210.263 35.126ZM210.263 33.2C210.815 33.2 211.307 33.08 211.739 32.84C212.171 32.6 212.507 32.252 212.747 31.796C212.999 31.34 213.125 30.806 213.125 30.194C213.125 29.57 212.999 29.036 212.747 28.592C212.507 28.136 212.171 27.788 211.739 27.548C211.307 27.308 210.821 27.188 210.281 27.188C209.729 27.188 209.237 27.308 208.805 27.548C208.385 27.788 208.049 28.136 207.797 28.592C207.545 29.036 207.419 29.57 207.419 30.194C207.419 30.806 207.545 31.34 207.797 31.796C208.049 32.252 208.385 32.6 208.805 32.84C209.237 33.08 209.723 33.2 210.263 33.2ZM221.99 35.126C220.982 35.126 220.082 34.916 219.29 34.496C218.51 34.064 217.898 33.476 217.454 32.732C217.01 31.988 216.788 31.142 216.788 30.194C216.788 29.234 217.01 28.388 217.454 27.656C217.898 26.912 218.51 26.33 219.29 25.91C220.082 25.49 220.982 25.28 221.99 25.28C222.926 25.28 223.748 25.472 224.456 25.856C225.176 26.228 225.722 26.78 226.094 27.512L224.366 28.52C224.078 28.064 223.724 27.728 223.304 27.512C222.896 27.296 222.452 27.188 221.972 27.188C221.42 27.188 220.922 27.308 220.478 27.548C220.034 27.788 219.686 28.136 219.434 28.592C219.182 29.036 219.056 29.57 219.056 30.194C219.056 30.818 219.182 31.358 219.434 31.814C219.686 32.258 220.034 32.6 220.478 32.84C220.922 33.08 221.42 33.2 221.972 33.2C222.452 33.2 222.896 33.092 223.304 32.876C223.724 32.66 224.078 32.324 224.366 31.868L226.094 32.876C225.722 33.596 225.176 34.154 224.456 34.55C223.748 34.934 222.926 35.126 221.99 35.126Z" fill="white"/>
</svg>
