<svg width="140" height="67" viewBox="0 0 140 67" fill="none" xmlns="http://www.w3.org/2000/svg">
<path d="M107.357 1.5H22C10.6782 1.5 1.5 10.6782 1.5 22V45C1.5 56.3218 10.6782 65.5 22 65.5H108.126C114.356 65.5 120.248 62.6668 124.139 57.8003L132.301 47.5891C137.976 40.49 138.3 30.5018 133.096 23.0506L124.164 10.2619C120.329 4.7713 114.054 1.5 107.357 1.5Z" fill="#050505" fill-opacity="0.7" stroke="#959595" stroke-width="3"/>
<path d="M102.543 29.6538H33.6255C31.9686 29.6538 30.6255 30.997 30.6255 32.6538V34.3459C30.6255 36.0027 31.9686 37.3459 33.6255 37.3459H102.543C104.2 37.3459 105.543 36.0027 105.543 34.3459V32.6538C105.543 30.997 104.2 29.6538 102.543 29.6538Z" fill="#A3A3A3"/>
<path d="M85.8667 54.5246C84.7754 55.389 83.2327 55.389 82.1413 54.5246L80.1055 52.9121C78.5891 51.711 78.5892 49.4099 80.1056 48.2088L95.7067 35.8517C97.2232 34.6506 97.2232 32.3494 95.7067 31.1483L80.1055 18.7916C78.5891 17.5905 78.589 15.2894 80.1054 14.0883L82.1413 12.4756C83.2326 11.611 84.7754 11.611 85.8668 12.4755L109.441 31.1484C110.957 32.3495 110.957 34.6505 109.441 35.8516L85.8667 54.5246Z" fill="#A3A3A3"/>
</svg>
