<?xml version="1.0" encoding="utf-8"?>
<!-- Generator: Adobe Illustrator 27.0.1, SVG Export Plug-In . SVG Version: 6.00 Build 0)  -->
<svg version="1.1" id="Слой_1" xmlns="http://www.w3.org/2000/svg" xmlns:xlink="http://www.w3.org/1999/xlink" x="0px" y="0px"
	 viewBox="0 0 140 67" style="enable-background:new 0 0 140 67;" xml:space="preserve">
<style type="text/css">
	.st0{fill:#050505;fill-opacity:0.7;stroke:#959595;stroke-width:3;}
	.st1{fill:#A3A3A3;}
</style>
<path class="st0" d="M31.9,65.5h85.4c11.3,0,20.5-9.2,20.5-20.5V22c0-11.3-9.2-20.5-20.5-20.5H31.2c-6.2,0-12.1,2.8-16,7.7L7,19.4
	c-5.7,7.1-6,17.1-0.8,24.5l8.9,12.8C19,62.2,25.2,65.5,31.9,65.5z"/>
<path class="st1" d="M36.7,37.3h68.9c1.7,0,3-1.3,3-3v-1.7c0-1.7-1.3-3-3-3H36.7c-1.7,0-3,1.3-3,3v1.7C33.7,36,35.1,37.3,36.7,37.3z
	"/>
<path class="st1" d="M53.4,12.5c1.1-0.9,2.6-0.9,3.7,0l2,1.6c1.5,1.2,1.5,3.5,0,4.7L43.6,31.1c-1.5,1.2-1.5,3.5,0,4.7l15.6,12.4
	c1.5,1.2,1.5,3.5,0,4.7l-2,1.6c-1.1,0.9-2.6,0.9-3.7,0L29.8,35.9c-1.5-1.2-1.5-3.5,0-4.7L53.4,12.5z"/>
</svg>
