<?xml version="1.0" encoding="UTF-8"?>
<svg id="_Слой_2" data-name="Слой 2" xmlns="http://www.w3.org/2000/svg" viewBox="0 0 443.46 686.87">
  <defs>
    <style>
      .cls-1 {
        fill: #fff;
      }

      .cls-2 {
        fill: #fc4d15;
      }
    </style>
  </defs>
  <g id="_Слой_2-2" data-name="Слой 2">
    <path class="cls-2" d="M272.88,0c1.34,6.16,3.62,14.69,7.67,24.42,2.83,6.82,6.36,15.34,13.02,23.87,6.78,8.69,12.98,13.05,21.28,19.96,18.3,15.23,25.73,26.01,30.17,32.77,8.17,12.43,16.43,26.15,18.77,45.96,.41,3.46,1.87,17.74-3.22,35.11-4.49,15.3-10.65,21.34-22.05,39.19-1.12,1.75-17.66,27.84-28.34,54.38-1.78,4.41-10.43,26.33-14.55,56.43,0,0-7.53,54.94,15.99,124.13,3.53,10.38,9.71,26.09,24.51,35,5.99,3.61,11.22,4.8,12.35,5.04,16.89,3.66,31.81-5.7,40.55-11.18,29.38-18.44,44.37-50.22,49.84-63.37,11.92,78.7-1.85,133.94-11.74,162.72-7.15,20.82-14.3,33.69-22.47,44.6-2.61,3.49-39.97,51.77-102.13,57.19-11.33,.99-34.61,2.71-55.66-10.47-5.11-3.2-13.81-8.81-19.15-19.91-6.15-12.8-3.99-24.89-3.42-28.04,3.52-19.67,20.87-36.21,44.02-43.71-4.64-5.26-12.41-15.67-14.81-30.64-.57-3.56-1.3-8.38-.26-13.92,3.49-18.49,23.63-27.93,27.49-29.66-13.77-3.43-34.03-9.13-57.87-18.39-18.17-7.06-20.09-9.06-34.18-14.52-29.92-11.6-53.91-20.9-82.84-18.05-10.55,1.04-41.97,4.13-65.12,29.89-16.14,17.95-20.48,38.25-21.86,47.79-5.12-12.59-10.19-27.92-13.79-45.7C-.51,463.33-.64,439.19,.72,420.93c3.88-30.08,12.59-53.49,19.74-69.01,3.35-7.29,19.66-41.75,54.95-75.62,15.79-15.16,29.12-24.11,55.78-42,25.16-16.89,47.05-29.48,62.81-38.04-6.82,.87-16.99,1.49-29.02-.43-9.49-1.51-24.43-3.89-38.64-15.15-12.02-9.52-18.18-21.17-21.28-28.77,25.86-6.72,46.5-14.89,61.46-21.7,18.85-8.58,34.29-17.54,46.46-24.6,12.11-7.03,22.14-13.33,29.53-18.13-2-6.12-3.47-13.24-3.57-21.19-.48-36.07,27.5-60.85,33.95-66.29Z"/>
  </g>
  <g id="_Слой_3" data-name="Слой 3">
    <path class="cls-1" d="M119.03,160.9c25.01,6.59,75.61,4.85,95.31,1.05,37.11-7.15,49.02-16.85,61.79-21.62,7.92-2.96,23.04-7.99,39.02-7.02,8.29,.51,21.6,1.67,32.3,13.53s5.96,30.09,.66,38.13c-8.38,12.73-11.73,16.64-18.7,26.34-17.38,24.16-28.68,43.55-36.09,70.47-5.11,18.55-6.47,40.33-10.55,63.83-5.11-50.55-27.55-77.78-43.06-92.09-13.11-12.09-24.6-18.13-24.6-18.13-9.4-4.93-17.82-7.84-23.23-9.28-8.74-2.32-16.36-3.39-22.13-3.91,3.7-2.73,7.39-5.47,11.09-8.2,12.65-10.01,30.86-21.67,44.82-29.76-8.94,3.15-44.56,8.49-65.02,3.91-23.51-5.26-35.57-18.13-41.6-27.27Z"/>
  </g>
  <g id="_Слой_4" data-name="Слой 4">
    <path class="cls-1" d="M288.21,588.16c-15.53-15.32-22.13-30.99-15.83-45.19,5.35-12.06,18.89-21.19,27.4-24.26,20.38-7.34,42.3-5.56,50.98-6,15.91-.81,51.83-11.87,81.11-50.51,3.15,24.6-4.94,99.74-23.66,137.45-5.44,10.95-26.3,54.64-79.53,70.09-4.46,1.29-48,14.94-72.26,1.66-12.37-6.77-20.94-19.02-20.94-36.64,0-19.15,20.94-35.11,52.72-46.6Z"/>
  </g>
</svg>