<svg width="94" height="8" fill="none" xmlns="http://www.w3.org/2000/svg"><path d="M93.854 4.354a.5.5 0 000-.708L90.672.464a.5.5 0 10-.707.708L92.793 4l-2.829 2.828a.5.5 0 10.708.708l3.182-3.182zM3.896 4.5a.5.5 0 100-1v1zm7.792-1a.5.5 0 000 1v-1zm7.791 1a.5.5 0 000-1v1zm7.792-1a.5.5 0 000 1v-1zm7.791 1a.5.5 0 000-1v1zm7.792-1a.5.5 0 100 1v-1zm7.792 1a.5.5 0 100-1v1zm7.791-1a.5.5 0 000 1v-1zm7.792 1a.5.5 0 000-1v1zm7.792-1a.5.5 0 000 1v-1zm7.791 1a.5.5 0 000-1v1zm7.792-1a.5.5 0 100 1v-1zM0 4.5h3.896v-1H0v1zm11.688 0h7.791v-1h-7.791v1zm15.583 0h7.791v-1h-7.791v1zm15.583 0h7.792v-1h-7.792v1zm15.584 0h7.791v-1h-7.791v1zm15.583 0h7.791v-1h-7.791v1zm15.583 0H93.5v-1h-3.896v1z" fill="#fff"/></svg>