<svg width="171" height="8" fill="none" xmlns="http://www.w3.org/2000/svg"><path d="M.5 4l5 2.887V1.113L.5 4zm170.354.354a.5.5 0 000-.708L167.672.464a.501.501 0 00-.708.708L169.793 4l-2.829 2.828a.5.5 0 00.708.708l3.182-3.182zM4.364 4.5a.5.5 0 000-1v1zm7.727-1a.5.5 0 000 1v-1zm7.727 1a.5.5 0 000-1v1zm7.727-1a.5.5 0 100 1v-1zm7.728 1a.5.5 0 100-1v1zM43 3.5a.5.5 0 000 1v-1zm7.727 1a.5.5 0 000-1v1zm7.728-1a.5.5 0 000 1v-1zm7.727 1a.5.5 0 100-1v1zm7.727-1a.5.5 0 100 1v-1zm7.727 1a.5.5 0 000-1v1zm7.728-1a.5.5 0 000 1v-1zm7.727 1a.5.5 0 100-1v1zm7.727-1a.5.5 0 000 1v-1zm7.727 1a.5.5 0 100-1v1zm7.728-1a.5.5 0 000 1v-1zm7.727 1a.5.5 0 000-1v1zm7.727-1a.5.5 0 000 1v-1zm7.728 1a.5.5 0 000-1v1zm7.727-1a.5.5 0 000 1v-1zm7.727 1a.5.5 0 000-1v1zm7.727-1a.5.5 0 000 1v-1zm-154.545 1h7.727v-1h-7.727v1zm15.455 0h7.727v-1h-7.728v1zM43 4.5h7.727v-1H43v1zm15.455 0h7.727v-1h-7.727v1zm15.454 0h7.727v-1H73.91v1zm15.455 0h7.727v-1h-7.727v1zm15.454 0h7.727v-1h-7.727v1zm15.455 0H128v-1h-7.727v1zm15.454 0h7.728v-1h-7.728v1zm15.455 0h7.727v-1h-7.727v1zm15.454 0h3.864v-1h-3.864v1z" fill="#fff"/></svg>