<svg width="79" height="182" fill="none" xmlns="http://www.w3.org/2000/svg"><path d="M78 1h.5V.5H78V1zm0 177v.5h.5v-.5H78zm-77.354-.354a.501.501 0 000 .708l3.182 3.182a.5.5 0 00.708-.708L1.707 178l2.829-2.828a.501.501 0 00-.708-.708l-3.182 3.182zM4.85 1.5a.5.5 0 000-1v1zm7.7-1a.5.5 0 000 1v-1zm7.7 1a.5.5 0 000-1v1zm7.7-1a.5.5 0 000 1v-1zm7.7 1a.5.5 0 000-1v1zm7.7-1a.5.5 0 000 1v-1zm7.7 1a.5.5 0 000-1v1zm7.7-1a.5.5 0 000 1v-1zm7.7 1a.5.5 0 000-1v1zm7.7-1a.5.5 0 000 1v-1zm3.35 4.523a.5.5 0 001 0h-1zm1 8.045a.5.5 0 10-1 0h1zm-1 8.046a.5.5 0 101 0h-1zm1 8.045a.5.5 0 00-1 0h1zm-1 8.046a.5.5 0 101 0h-1zm1 8.045a.5.5 0 00-1 0h1zm-1 8.045a.5.5 0 001 0h-1zm1 8.046a.5.5 0 00-1 0h1zm-1 8.045a.5.5 0 001 0h-1zm1 8.046a.5.5 0 00-1 0h1zm-1 8.045a.5.5 0 001 0h-1zm1 8.046a.5.5 0 00-1 0h1zm-1 8.045a.5.5 0 001 0h-1zm1 8.046a.5.5 0 00-1 0h1zm-1 8.045a.5.5 0 001 0h-1zm1 8.046a.5.5 0 10-1 0h1zm-1 8.045a.5.5 0 001 0h-1zm1 8.045a.5.5 0 00-1 0h1zm-1 8.046a.5.5 0 001 0h-1zm1 8.045a.5.5 0 00-1 0h1zm-1 8.046a.5.5 0 001 0h-1zm1 8.045a.5.5 0 00-1 0h1zm-4.35 3.523a.5.5 0 000 1v-1zm-7.7 1a.5.5 0 000-1v1zm-7.7-1a.5.5 0 000 1v-1zm-7.7 1a.5.5 0 000-1v1zm-7.7-1a.5.5 0 000 1v-1zm-7.7 1a.5.5 0 000-1v1zm-7.7-1a.5.5 0 000 1v-1zm-7.7 1a.5.5 0 000-1v1zm-7.7-1a.5.5 0 000 1v-1zm-7.7 1a.5.5 0 000-1v1zM1 1.5h3.85v-1H1v1zm11.55 0h7.7v-1h-7.7v1zm15.4 0h7.7v-1h-7.7v1zm15.4 0h7.7v-1h-7.7v1zm15.4 0h7.7v-1h-7.7v1zm15.4 0H78v-1h-3.85v1zM77.5 1v4.023h1V1h-1zm0 12.068v8.046h1v-8.046h-1zm0 16.091v8.046h1v-8.046h-1zm0 16.091v8.045h1V45.25h-1zm0 16.09v8.046h1v-8.045h-1zm0 16.092v8.045h1v-8.045h-1zm0 16.09v8.046h1v-8.045h-1zm0 16.092v8.045h1v-8.045h-1zm0 16.091v8.045h1v-8.045h-1zm0 16.09v8.046h1v-8.046h-1zm0 16.091v8.046h1v-8.046h-1zm0 16.091V178h1v-4.023h-1zm.5 3.523h-3.85v1H78v-1zm-11.55 0h-7.7v1h7.7v-1zm-15.4 0h-7.7v1h7.7v-1zm-15.4 0h-7.7v1h7.7v-1zm-15.4 0h-7.7v1h7.7v-1zm-15.4 0H1v1h3.85v-1z" fill="#fff"/></svg>