<svg aria-hidden="true" style="position: absolute; width: 0; height: 0; overflow: hidden;" version="1.1" xmlns="http://www.w3.org/2000/svg" xmlns:xlink="http://www.w3.org/1999/xlink">
<defs>
<symbol id="icon-radar" viewBox="0 0 32 32">
<path fill="#fff" style="fill: var(--color1, #fff)" d="M7.561 5.676l10.324 10.324-1.885 1.885-4.595-4.595c-0.59 1.001-0.838 2.167-0.704 3.321s0.64 2.233 1.442 3.073c0.803 0.84 1.858 1.395 3.005 1.58s2.323-0.009 3.349-0.553c1.026-0.544 1.847-1.409 2.337-2.462s0.623-2.238 0.378-3.374c-0.245-1.136-0.854-2.16-1.734-2.918s-1.984-1.208-3.144-1.281l-2.407-2.407c1.819-0.488 3.752-0.318 5.458 0.479s3.077 2.171 3.87 3.879 0.958 3.641 0.466 5.459c-0.492 1.818-1.609 3.404-3.156 4.479s-3.422 1.57-5.298 1.398c-1.875-0.172-3.63-1-4.955-2.339s-2.135-3.101-2.288-4.978 0.361-3.748 1.452-5.283l-1.905-1.905c-1.59 2.050-2.379 4.609-2.218 7.198s1.259 5.031 3.090 6.869c1.831 1.838 4.269 2.945 6.858 3.115s5.15-0.61 7.206-2.192 3.464-3.86 3.961-6.406c0.497-2.546 0.050-5.186-1.259-7.426s-3.389-3.926-5.851-4.743-5.138-0.708-7.526 0.305l-2.003-2.001c1.904-0.995 4.020-1.513 6.168-1.509 7.364 0 13.333 5.969 13.333 13.333s-5.969 13.333-13.333 13.333c-7.364 0-13.333-5.969-13.333-13.333-0.002-1.976 0.436-3.928 1.283-5.714s2.080-3.361 3.612-4.61z"></path>
</symbol>
<symbol id="icon-letter" viewBox="0 0 32 32">
<path fill="#fff" style="fill: var(--color1, #fff)" d="M5.333 26.667c-0.733 0-1.361-0.261-1.883-0.783s-0.784-1.151-0.784-1.884v-16c0-0.733 0.261-1.361 0.784-1.883s1.149-0.784 1.883-0.784h21.333c0.733 0 1.361 0.261 1.884 0.784s0.783 1.149 0.783 1.883v16c0 0.733-0.261 1.361-0.783 1.884s-1.151 0.783-1.884 0.783h-21.333zM26.667 10.667l-9.967 6.233c-0.111 0.067-0.228 0.116-0.351 0.149s-0.238 0.051-0.349 0.051-0.228-0.017-0.349-0.051c-0.123-0.033-0.24-0.083-0.351-0.149l-9.967-6.233v13.333h21.333v-13.333zM16 14.667l10.667-6.667h-21.333l10.667 6.667zM5.333 10.667v0z"></path>
</symbol>
<symbol id="icon-internet" viewBox="0 0 32 32">
<path fill="#fff" style="fill: var(--color1, #fff)" d="M21.813 18.667c0.107-0.88 0.187-1.76 0.187-2.667s-0.080-1.787-0.187-2.667h4.507c0.213 0.853 0.347 1.747 0.347 2.667s-0.133 1.813-0.347 2.667zM19.453 26.080c0.8-1.48 1.413-3.080 1.84-4.747h3.933c-1.292 2.224-3.341 3.909-5.773 4.747zM19.12 18.667h-6.24c-0.133-0.88-0.213-1.76-0.213-2.667s0.080-1.8 0.213-2.667h6.24c0.12 0.867 0.213 1.76 0.213 2.667s-0.093 1.787-0.213 2.667zM16 26.613c-1.107-1.6-2-3.373-2.547-5.28h5.093c-0.547 1.907-1.44 3.68-2.547 5.28zM10.667 10.667h-3.893c1.278-2.23 3.326-3.918 5.76-4.747-0.8 1.48-1.4 3.080-1.867 4.747zM6.773 21.333h3.893c0.467 1.667 1.067 3.267 1.867 4.747-2.428-0.838-4.474-2.523-5.76-4.747zM5.68 18.667c-0.213-0.853-0.347-1.747-0.347-2.667s0.133-1.813 0.347-2.667h4.507c-0.107 0.88-0.187 1.76-0.187 2.667s0.080 1.787 0.187 2.667zM16 5.373c1.107 1.6 2 3.387 2.547 5.293h-5.093c0.547-1.907 1.44-3.693 2.547-5.293zM25.227 10.667h-3.933c-0.417-1.651-1.035-3.245-1.84-4.747 2.453 0.84 4.493 2.533 5.773 4.747zM16 2.667c-7.373 0-13.333 6-13.333 13.333 0 3.536 1.405 6.928 3.905 9.428 1.238 1.238 2.708 2.22 4.326 2.89s3.351 1.015 5.102 1.015c3.536 0 6.928-1.405 9.428-3.905s3.905-5.892 3.905-9.428c0-1.751-0.345-3.485-1.015-5.102s-1.652-3.088-2.89-4.326c-1.238-1.238-2.708-2.22-4.326-2.89s-3.352-1.015-5.102-1.015z"></path>
</symbol>
<symbol id="icon-box" viewBox="0 0 32 32">
<path fill="#fff" style="fill: var(--color1, #fff)" d="M2.667 14.613c-0.155-0.085-0.291-0.201-0.4-0.339s-0.189-0.298-0.235-0.469c-0.046-0.171-0.057-0.349-0.033-0.524s0.084-0.343 0.175-0.495l2-3.453c0.147-0.267 0.373-0.453 0.627-0.56l10.44-5.867c0.213-0.16 0.48-0.24 0.76-0.24s0.547 0.080 0.76 0.24l10.533 5.92c0.253 0.133 0.466 0.347 0.587 0.613l1.933 3.36c0.373 0.64 0.146 1.453-0.48 1.813l-1.333 0.773v6.613c0 0.507-0.28 0.947-0.707 1.173l-10.533 5.92c-0.213 0.16-0.48 0.24-0.76 0.24s-0.547-0.080-0.76-0.24l-10.533-5.92c-0.214-0.112-0.393-0.281-0.517-0.488s-0.19-0.444-0.189-0.685v-7.387c-0.4 0.227-0.907 0.24-1.333 0zM16 5.533v8.933l7.947-4.467-7.947-4.467zM6.667 21.213l8 4.507v-8.947l-8-4.493v8.933zM25.333 21.213v-4.293l-6.667 3.867c-0.44 0.24-0.933 0.227-1.333 0.013v4.92l8-4.507zM18.467 17.813l8.373-4.84-0.773-1.347-8.373 4.84 0.773 1.347z"></path>
</symbol>
<symbol id="icon-logo_circle" viewBox="0 0 35 32">
<path fill="#0c0c0c" style="fill: var(--color2, #0c0c0c)" d="M32.228 15.886c0 8.019-6.501 14.52-14.52 14.52s-14.52-6.501-14.52-14.52c0-8.019 6.501-14.52 14.52-14.52s14.52 6.501 14.52 14.52z"></path>
<path fill="#3a2a70" style="fill: var(--color3, #3a2a70)" d="M5.799 21.153l11.852 5.153v-10.306l-11.852 5.153z"></path>
<path fill="#14073f" style="fill: var(--color4, #14073f)" d="M29.503 21.153l-11.852 5.153v-10.306l11.852 5.153z"></path>
<path fill="#ff8948" style="fill: var(--color5, #ff8948)" d="M5.799 17.718l11.852 5.153v-10.306l-11.852 5.153z"></path>
<path fill="#ff4c4c" style="fill: var(--color6, #ff4c4c)" d="M29.503 17.718l-11.852 5.153v-10.306l11.852 5.153z"></path>
<path fill="#ffbc17" style="fill: var(--color7, #ffbc17)" d="M5.799 14.282l11.852 5.153v-10.306l-11.852 5.153z"></path>
<path fill="#ff8948" style="fill: var(--color5, #ff8948)" d="M29.503 14.282l-11.852 5.153v-10.306l11.852 5.153z"></path>
<path fill="#ffde00" style="fill: var(--color8, #ffde00)" d="M5.799 10.847l11.852 5.153v-10.306l-11.852 5.153z"></path>
<path fill="#ffbc17" style="fill: var(--color7, #ffbc17)" d="M29.503 10.847l-11.852 5.153v-10.306l11.852 5.153z"></path>
</symbol>
<symbol id="icon-logo_text" viewBox="0 0 80 32">
<path fill="#ffb600" style="fill: var(--color9, #ffb600)" d="M44.686 13.078c-0.357 0.38-1.016 0.612-1.729 0.612-1.147 0-1.949-0.588-1.949-1.111 0-0.529 0.802-1.111 1.949-1.111 0.517 0 1.010 0.119 1.385 0.339l0.505-0.862c-0.523-0.309-1.194-0.475-1.89-0.475-1.652 0-2.948 0.927-2.948 2.11s1.296 2.11 2.948 2.11c0.992 0 1.914-0.345 2.454-0.921l-0.725-0.689zM51.453 14.629l-1.313-1.248c0.565-0.285 0.921-0.761 0.921-1.307 0-0.897-0.963-1.599-2.193-1.599h-2.864v4.154h0.998v-0.963h1.866c0.053 0 0.101 0 0.154 0l1.016 0.963h1.414zM47.002 11.431h1.866c0.683 0 1.194 0.339 1.194 0.642 0 0.297-0.511 0.636-1.194 0.636h-1.866v-1.278zM57.503 10.475h-1.515l-1.747 1.527-1.729-1.527h-1.504l2.734 2.419v1.735h0.998v-1.735l2.763-2.419zM60.847 10.475h-2.847v4.154h0.998v-0.624l1.866-0.012c1.301-0.006 2.324-0.778 2.324-1.759 0-0.986-1.028-1.759-2.341-1.759zM60.858 12.994l-1.86 0.012v-1.533h1.848c0.79 0 1.343 0.398 1.343 0.761 0 0.357-0.547 0.755-1.331 0.761zM68.567 10.475h-4.998v0.998h1.908v3.156h0.998v-3.156h2.092v-0.998zM71.862 10.475c-1.723 0-3.072 0.921-3.072 2.104 0 1.177 1.349 2.104 3.072 2.104s3.072-0.927 3.072-2.104c0-1.183-1.349-2.104-3.072-2.104zM71.862 13.755c-1.123 0-2.074-0.541-2.074-1.177 0-0.642 0.951-1.177 2.074-1.177s2.074 0.535 2.074 1.177c0 0.636-0.951 1.177-2.074 1.177z"></path>
<path fill="#fff" style="fill: var(--color1, #fff)" d="M46.047 16.417l-2.341 2.032-2.341-2.032h-1.117v4.154h0.998v-2.936l2.205 1.914h0.511l2.205-1.914v2.936h0.998v-4.154h-1.117zM52.205 17.41v-0.998h-4.083v4.178h4.083v-0.998h-3.084v-0.588h2.817v-0.998h-2.817v-0.594h3.084zM57.833 16.417v2.995l-3.685-2.989h-1.088v4.148h0.998v-2.936l3.625 2.936h1.153v-4.154h-1.004zM64.464 16.417h-4.998v0.998h1.908v3.156h0.998v-3.156h2.092v-0.998zM66.085 20.571v-4.154h-0.998v4.154h0.998zM69.871 16.417c-1.723 0-3.072 0.921-3.072 2.104 0 1.177 1.349 2.104 3.072 2.104s3.072-0.927 3.072-2.104c0-1.183-1.349-2.104-3.072-2.104zM69.871 19.698c-1.123 0-2.074-0.541-2.074-1.177 0-0.642 0.951-1.177 2.074-1.177s2.074 0.535 2.074 1.177c0 0.636-0.951 1.177-2.074 1.177zM78.436 16.417v2.995l-3.685-2.989h-1.088v4.148h0.998v-2.936l3.625 2.936h1.153v-4.154h-1.004z"></path>
<path fill="#3a2a70" style="fill: var(--color3, #3a2a70)" d="M0 23.851l18.286 7.95v-15.901l-18.286 7.95z"></path>
<path fill="#14073f" style="fill: var(--color4, #14073f)" d="M36.571 23.851l-18.286 7.95v-15.901l18.286 7.95z"></path>
<path fill="#ff8948" style="fill: var(--color5, #ff8948)" d="M0 18.551l18.286 7.95v-15.901l-18.286 7.95z"></path>
<path fill="#ff4c4c" style="fill: var(--color6, #ff4c4c)" d="M36.571 18.551l-18.286 7.95v-15.901l18.286 7.95z"></path>
<path fill="#ffbc17" style="fill: var(--color7, #ffbc17)" d="M0 13.251l18.286 7.95v-15.901l-18.286 7.95z"></path>
<path fill="#ff8948" style="fill: var(--color5, #ff8948)" d="M36.571 13.251l-18.286 7.95v-15.901l18.286 7.95z"></path>
<path fill="#ffde00" style="fill: var(--color8, #ffde00)" d="M0 7.95l18.286 7.95v-15.901l-18.286 7.95z"></path>
<path fill="#ffbc17" style="fill: var(--color7, #ffbc17)" d="M36.571 7.95l-18.286 7.95v-15.901l18.286 7.95z"></path>
</symbol>
<symbol id="icon-logo" viewBox="0 0 37 32">
<path fill="#3a2a70" style="fill: var(--color3, #3a2a70)" d="M0 24l18.4 8v-16l-18.4 8z"></path>
<path fill="#14073f" style="fill: var(--color4, #14073f)" d="M36.8 24l-18.4 8v-16l18.4 8z"></path>
<path fill="#ff8948" style="fill: var(--color5, #ff8948)" d="M0 18.667l18.4 8v-16l-18.4 8z"></path>
<path fill="#ff4c4c" style="fill: var(--color6, #ff4c4c)" d="M36.8 18.667l-18.4 8v-16l18.4 8z"></path>
<path fill="#ffbc17" style="fill: var(--color7, #ffbc17)" d="M0 13.333l18.4 8v-16l-18.4 8z"></path>
<path fill="#ff8948" style="fill: var(--color5, #ff8948)" d="M36.8 13.333l-18.4 8v-16l18.4 8z"></path>
<path fill="#ffde00" style="fill: var(--color8, #ffde00)" d="M0 8l18.4 8v-16l-18.4 8z"></path>
<path fill="#ffbc17" style="fill: var(--color7, #ffbc17)" d="M36.8 8l-18.4 8v-16l18.4 8z"></path>
</symbol>
<symbol id="icon-tg" viewBox="0 0 31 32">
<path fill="#fff" style="fill: var(--color1, #fff)" d="M15.543 0.381c-8.411 0-15.238 6.997-15.238 15.619s6.827 15.619 15.238 15.619 15.238-6.997 15.238-15.619c0-8.622-6.827-15.619-15.238-15.619zM22.613 11.002c-0.229 2.468-1.219 8.465-1.722 11.23-0.213 1.171-0.64 1.562-1.036 1.609-0.884 0.078-1.554-0.594-2.408-1.171-1.341-0.906-2.103-1.468-3.398-2.343-1.509-1.015-0.533-1.578 0.335-2.483 0.229-0.234 4.13-3.874 4.206-4.201 0.011-0.050 0.009-0.101-0.004-0.15s-0.038-0.094-0.072-0.131c-0.091-0.078-0.213-0.047-0.32-0.031-0.137 0.031-2.27 1.484-6.43 4.358-0.61 0.422-1.158 0.64-1.646 0.625-0.549-0.016-1.585-0.312-2.362-0.578-0.96-0.312-1.707-0.484-1.646-1.031 0.030-0.281 0.411-0.562 1.128-0.859 4.449-1.984 7.406-3.296 8.884-3.92 4.236-1.812 5.105-2.124 5.684-2.124 0.122 0 0.411 0.031 0.594 0.187 0.152 0.125 0.198 0.297 0.213 0.422-0.015 0.094 0.015 0.375 0 0.594z"></path>
</symbol>
<symbol id="icon-message" viewBox="0 0 32 32">
<path fill="#fff" style="fill: var(--color1, #fff)" d="M9.725 14.432c0.445 0 0.817-0.151 1.118-0.452 0.3-0.3 0.45-0.672 0.45-1.117s-0.15-0.817-0.45-1.118c-0.301-0.3-0.674-0.45-1.119-0.45s-0.817 0.15-1.118 0.45c-0.3 0.301-0.45 0.674-0.45 1.118s0.15 0.817 0.45 1.117c0.301 0.301 0.674 0.452 1.118 0.452zM16 14.432c0.444 0 0.817-0.151 1.118-0.452 0.3-0.3 0.45-0.672 0.45-1.117s-0.15-0.817-0.45-1.118c-0.301-0.3-0.674-0.45-1.118-0.45s-0.817 0.15-1.117 0.45c-0.301 0.301-0.452 0.674-0.452 1.118s0.151 0.817 0.452 1.117c0.3 0.301 0.672 0.452 1.117 0.452zM22.275 14.432c0.444 0 0.817-0.151 1.117-0.452 0.301-0.3 0.452-0.672 0.452-1.117s-0.151-0.817-0.452-1.118c-0.3-0.3-0.672-0.45-1.117-0.45s-0.817 0.15-1.117 0.45c-0.301 0.301-0.452 0.674-0.452 1.118s0.151 0.817 0.452 1.117c0.3 0.301 0.672 0.452 1.117 0.452zM0.314 31.686v-28.235c0-0.863 0.307-1.602 0.922-2.216 0.614-0.614 1.352-0.921 2.215-0.921h25.098c0.863 0 1.602 0.307 2.216 0.921 0.614 0.615 0.921 1.354 0.921 2.216v18.823c0 0.863-0.307 1.602-0.921 2.216-0.615 0.614-1.354 0.921-2.216 0.921h-21.961l-6.274 6.274zM3.451 24.118l1.843-1.843h23.255v-18.823h-25.098v20.667zM3.451 3.451v0z"></path>
</symbol>
<symbol id="icon-letterM" viewBox="0 0 41 32">
<path fill="#fff" style="fill: var(--color1, #fff)" d="M40.828 3.241v25.517c0 1.448-1.104 2.552-2.552 2.552h-2.552v-23.158l-15.31 10.998-15.31-10.998v23.158h-2.552c-1.448 0-2.552-1.104-2.552-2.552v-25.517c0-0.725 0.273-1.363 0.731-1.814 0.239-0.239 0.523-0.427 0.835-0.554s0.648-0.189 0.985-0.184h0.851l17.011 12.334 17.011-12.334h0.851c0.725 0 1.363 0.273 1.821 0.737 0.458 0.452 0.731 1.090 0.731 1.814z"></path>
</symbol>
<symbol id="icon-whatsUp" viewBox="0 0 31 32">
<path fill="#fff" style="fill: var(--color1, #fff)" d="M26.286 4.926c-1.397-1.446-3.061-2.593-4.895-3.374s-3.801-1.179-5.787-1.171c-8.32 0-15.101 6.95-15.101 15.479 0 2.733 0.701 5.389 2.011 7.731l-2.133 8.028 8-2.155c2.21 1.234 4.693 1.89 7.223 1.89 8.32 0 15.101-6.95 15.101-15.479 0-4.139-1.569-8.028-4.419-10.949zM15.604 28.73c-2.255 0-4.465-0.625-6.4-1.796l-0.457-0.281-4.754 1.281 1.265-4.748-0.305-0.484c-1.253-2.051-1.918-4.421-1.92-6.841 0-7.091 5.638-12.87 12.556-12.87 3.352 0 6.507 1.343 8.869 3.78 1.169 1.193 2.096 2.613 2.727 4.176s0.952 3.239 0.946 4.93c0.030 7.091-5.608 12.854-12.526 12.854zM22.491 19.108c-0.381-0.187-2.24-1.125-2.575-1.265-0.35-0.125-0.594-0.187-0.853 0.187-0.259 0.39-0.975 1.265-1.189 1.515-0.213 0.265-0.442 0.297-0.823 0.094-0.381-0.187-1.6-0.609-3.032-1.921-1.128-1.031-1.874-2.296-2.103-2.686-0.213-0.39-0.030-0.594 0.168-0.797 0.168-0.172 0.381-0.453 0.564-0.672s0.259-0.39 0.381-0.64c0.122-0.265 0.061-0.484-0.030-0.672s-0.853-2.093-1.158-2.874c-0.305-0.75-0.625-0.656-0.853-0.672h-0.731c-0.259 0-0.655 0.094-1.006 0.484-0.335 0.39-1.311 1.328-1.311 3.233s1.356 3.749 1.539 3.998c0.183 0.265 2.667 4.17 6.446 5.842 0.899 0.406 1.6 0.64 2.149 0.812 0.899 0.297 1.722 0.25 2.377 0.156 0.731-0.109 2.24-0.937 2.545-1.843 0.32-0.906 0.32-1.671 0.213-1.843s-0.335-0.25-0.716-0.437z"></path>
</symbol>
</defs>
</svg>
